<?xml version="1.0" standalone="no"?>
<!DOCTYPE svg PUBLIC "-//W3C//DTD SVG 20010904//EN"
 "http://www.w3.org/TR/2001/REC-SVG-20010904/DTD/svg10.dtd">
<svg version="1.0" xmlns="http://www.w3.org/2000/svg"
 width="500.000000pt" height="500.000000pt" viewBox="0 0 500.000000 500.000000"
 preserveAspectRatio="xMidYMid meet">

<g transform="translate(0.000000,500.000000) scale(0.100000,-0.100000)"
fill="#000000" stroke="none">
<path d="M0 2500 l0 -2500 2500 0 2500 0 0 2500 0 2500 -2500 0 -2500 0 0
-2500z m2345 665 c193 -41 330 -174 343 -333 l5 -53 -133 3 -132 3 -13 38
c-28 82 -97 120 -216 121 -136 0 -214 -59 -206 -157 7 -84 47 -109 270 -168
84 -22 184 -55 224 -73 131 -63 210 -161 220 -277 l6 -59 -137 0 -136 0 0
-179 0 -178 -62 -14 c-90 -20 -296 -17 -378 5 -192 52 -311 182 -327 359 l-6
58 133 -3 133 -3 14 -47 c28 -96 115 -148 247 -148 96 0 141 14 190 60 38 36
41 42 41 93 0 97 -40 123 -287 187 -244 64 -350 125 -403 233 -71 147 -23 336
112 439 125 95 318 131 498 93z m263 -1051 c16 -11 22 -25 22 -54 0 -49 -27
-70 -87 -70 -41 0 -43 -1 -43 -30 0 -23 -4 -30 -20 -30 -19 0 -20 7 -20 100
l0 100 63 0 c40 0 70 -5 85 -16z m1102 -254 c0 -20 -7 -20 -615 -20 -608 0
-615 0 -615 20 0 20 7 20 615 20 608 0 615 0 615 -20z"/>
<path d="M2500 2060 c0 -38 2 -40 29 -40 46 0 61 10 61 40 0 30 -15 40 -61 40
-27 0 -29 -2 -29 -40z"/>
</g>
</svg>
